<svg xmlns="http://www.w3.org/2000/svg" width="578" viewBox="0 0 578 476" xmlns:xlink="http://www.w3.org/1999/xlink" height="476">
    <style type="text/css"><![CDATA[
.st1 {fill:#303030;font-family:Arial;font-size:11pt}
]]></style>
    <defs>
        <linearGradient id="lg1" y2="100%" y1="0%" x2="0%" x1="0%">
            <stop offset="0" stop-color="#fbfafb"/>
            <stop offset="1" stop-color="#edeaf0"/>
        </linearGradient>
    </defs>
    <g transform="translate(-297.26,-800)">
        <g transform="translate(312.3,897.7)">
            <path id="shape1" fill="url(#lg1)" d="M160.5,45L321,22.5L160.5,0L0,22.5L160.5,45z" stroke="#5c4776"/>
            <text class="st1">
                <tspan x="76.5" y="27">Interface function analysis</tspan>
            </text>
        </g>
        <g transform="translate(312.3,831.7)">
            <path id="shape2" fill="url(#lg1)" d="M160.5,45L321,22.5L160.5,0L0,22.5L160.5,45z" stroke="#5c4776"/>
            <text class="st1">
                <tspan x="72.5" y="27">Identify data to synchronize</tspan>
            </text>
        </g>
        <g transform="translate(312.3,963.7)">
            <path id="shape3" fill="url(#lg1)" d="M160.5,45L321,22.5L160.5,0L0,22.5L160.5,45z" stroke="#5c4776"/>
            <text class="st1">
                <tspan x="72.5" y="27">Normalization of input code</tspan>
            </text>
        </g>
        <g transform="translate(312.3,1029.7)">
            <path id="shape4" fill="url(#lg1)" d="M160.5,45L321,22.5L160.5,0L0,22.5L160.5,45z" stroke="#5c4776"/>
            <text class="st1">
                <tspan x="70.5" y="27">Object connectivity analysis</tspan>
            </text>
        </g>
        <g transform="translate(312.3,1093.7)">
            <path id="shape5" fill="url(#lg1)" d="M160.5,45L321,22.5L160.5,0L0,22.5L160.5,45z" stroke="#5c4776"/>
            <text class="st1">
                <tspan x="70.5" y="27">Reaching definition analysis</tspan>
            </text>
        </g>
        <g transform="translate(370.28,1160.7)">
            <path id="shape6" fill="url(#lg1)" d="M205,28L205,0L0,0L0,28L205,28z" stroke="#5c4776"/>
            <text class="st1">
                <tspan x="28" y="18.5">Relocating shared data</tspan>
            </text>
        </g>
        <g id="shape7" transform="translate(382.26,810.7)">
            <text class="st1">
                <tspan x="11" y="14">Input code</tspan>
            </text>
        </g>
        <g id="shape8" transform="translate(382.26,877.7)">
            <text class="st1">
                <tspan x="11" y="14">Input code</tspan>
            </text>
        </g>
        <g id="shape9" transform="matrix(0,1,-1,0,472.8,876.7)">
            <path fill="none" d="M0,0L13,0" stroke="#5c4776"/>
            <path fill="#5c4776" d="M13,-4L21,0L13,4L13,-4" stroke-linecap="round" stroke-width="1" stroke="#5c4776"/>
        </g>
        <g id="shape10" transform="matrix(0,1,-1,0,472.8,811.7)">
            <path fill="none" d="M0,0L12,0" stroke="#5c4776"/>
            <path fill="#5c4776" d="M12,-4L20,0L12,4L12,-4" stroke-linecap="round" stroke-width="1" stroke="#5c4776"/>
        </g>
        <g id="shape11" transform="matrix(0,1,-1,0,472.8,942.7)">
            <path fill="none" d="M0,0L13,0" stroke="#5c4776"/>
            <path fill="#5c4776" d="M13,-4L21,0L13,4L13,-4" stroke-linecap="round" stroke-width="1" stroke="#5c4776"/>
        </g>
        <g id="shape12" transform="matrix(0,1,-1,0,472.8,1008.7)">
            <path fill="none" d="M0,0L13,0" stroke="#5c4776"/>
            <path fill="#5c4776" d="M13,-4L21,0L13,4L13,-4" stroke-linecap="round" stroke-width="1" stroke="#5c4776"/>
        </g>
        <g id="shape13" transform="matrix(0,1,-1,0,472.8,1074.7)">
            <path fill="none" d="M0,0L11,0" stroke="#5c4776"/>
            <path fill="#5c4776" d="M11,-4L19,0L11,4L11,-4" stroke-linecap="round" stroke-width="1" stroke="#5c4776"/>
        </g>
        <g id="shape14" transform="matrix(0,1,-1,0,472.8,1138.7)">
            <path fill="none" d="M0,0L14,0" stroke="#5c4776"/>
            <path fill="#5c4776" d="M14,-4L22,0L14,4L14,-4" stroke-linecap="round" stroke-width="1" stroke="#5c4776"/>
        </g>
        <g id="shape15" transform="translate(303.26,1009.7)">
            <text class="st1">
                <tspan x="12" y="14">Normalized input code</tspan>
            </text>
        </g>
        <g id="shape16" transform="translate(303.26,1074.7)">
            <text class="st1">
                <tspan x="12" y="14">Normalized input code</tspan>
            </text>
        </g>
        <g id="shape17" transform="translate(303.26,1137.7)">
            <text class="st1">
                <tspan x="12" y="14">Normalized input code</tspan>
            </text>
        </g>
        <g id="shape18" transform="translate(382.26,943.7)">
            <text class="st1">
                <tspan x="11" y="14">Input code</tspan>
            </text>
        </g>
        <g transform="translate(370.28,1215.7)">
            <path id="shape19" fill="url(#lg1)" d="M206,28L206,0L0,0L0,28L206,28z" stroke="#5c4776"/>
            <text class="st1">
                <tspan x="19" y="18.5">Inserting synchronizations</tspan>
            </text>
        </g>
        <g id="shape20" transform="translate(489.26,877.7)">
            <text class="st1">
                <tspan x="9" y="14">+variables&amp;objects to synchronize</tspan>
            </text>
        </g>
        <g id="shape21" transform="translate(489.26,943.7)">
            <text class="st1">
                <tspan x="7" y="14">+interface functions to synchronize</tspan>
            </text>
        </g>
        <g id="shape22" transform="translate(489.26,1009.7)">
            <text class="st1">
                <tspan x="4" y="14">+independent interface functions to synchronize</tspan>
            </text>
        </g>
        <g id="shape23" transform="translate(489.26,1074.7)">
            <text class="st1">
                <tspan x="4" y="14">+shared objects to relocate vs modify in place</tspan>
            </text>
        </g>
        <g id="shape24" transform="translate(487.26,1137.7)">
            <text class="st1">
                <tspan x="7" y="14">+def-use chains for references to shared objects</tspan>
            </text>
        </g>
        <g id="shape25" transform="translate(489.26,1192.7)">
            <text class="st1">
                <tspan x="4" y="14">Modified data abstraction implementation</tspan>
            </text>
        </g>
        <g id="shape26" transform="matrix(0,1,-1,0,473.3,1243.7)">
            <path fill="none" d="M0,0L14,0" stroke="#5c4776"/>
            <path fill="#5c4776" d="M14,-4L22,0L14,4L14,-4" stroke-linecap="round" stroke-width="1" stroke="#5c4776"/>
        </g>
        <g id="shape27" transform="translate(489.26,1247.7)">
            <text class="st1">
                <tspan x="4" y="14">Concurrent data abstraction implementation</tspan>
            </text>
        </g>
        <g id="shape28" transform="matrix(0,-1,1,0,819.3,1247.7)">
            <path fill="none" d="M0,0L408,0" stroke="#5c4776"/>
            <path fill="#5c4776" d="M408,-4L416,0L408,4L408,-4" stroke-linecap="round" stroke-width="1" stroke="#5c4776"/>
        </g>
        <g id="shape29" transform="translate(633.26,854.2)">
            <path fill="none" d="M0,0L177,0" stroke="#5c4776"/>
            <path fill="#5c4776" d="M177,-4L185,0L177,4L177,-4" stroke-linecap="round" stroke-width="1" stroke="#5c4776"/>
        </g>
        <g id="shape30" transform="translate(633.26,920.2)">
            <path fill="none" d="M0,0L177,0" stroke="#5c4776"/>
            <path fill="#5c4776" d="M177,-4L185,0L177,4L177,-4" stroke-linecap="round" stroke-width="1" stroke="#5c4776"/>
        </g>
        <g id="shape31" transform="translate(633.26,986.2)">
            <path fill="none" d="M0,0L177,0" stroke="#5c4776"/>
            <path fill="#5c4776" d="M177,-4L185,0L177,4L177,-4" stroke-linecap="round" stroke-width="1" stroke="#5c4776"/>
        </g>
        <g id="shape32" transform="translate(633.26,1052.2)">
            <path fill="none" d="M0,0L178,0" stroke="#5c4776"/>
            <path fill="#5c4776" d="M178,-4L186,0L178,4L178,-4" stroke-linecap="round" stroke-width="1" stroke="#5c4776"/>
        </g>
        <g id="shape33" transform="translate(633.26,1116.2)">
            <path fill="none" d="M0,0L177,0" stroke="#5c4776"/>
            <path fill="#5c4776" d="M177,-4L185,0L177,4L177,-4" stroke-linecap="round" stroke-width="1" stroke="#5c4776"/>
        </g>
        <g id="shape34" transform="translate(640.26,831.7)">
            <text class="st1">
                <tspan x="36" y="14">fail</tspan>
            </text>
        </g>
        <g id="shape35" transform="translate(640.26,897.7)">
            <text class="st1">
                <tspan x="36" y="14">fail</tspan>
            </text>
        </g>
        <g id="shape36" transform="translate(640.26,963.7)">
            <text class="st1">
                <tspan x="36" y="14">fail</tspan>
            </text>
        </g>
        <g id="shape37" transform="translate(640.26,1029.7)">
            <text class="st1">
                <tspan x="36" y="14">fail</tspan>
            </text>
        </g>
        <g id="shape38" transform="translate(640.26,1093.7)">
            <text class="st1">
                <tspan x="36" y="14">fail</tspan>
            </text>
        </g>
        <g id="shape39" transform="translate(758.26,810.7)">
            <text class="st1">
                <tspan x="10" y="14">Fail to convert</tspan>
            </text>
        </g>
        <g id="shape40" transform="matrix(0.02,1,-1,0.02,472.8,1188.7)">
            <path fill="none" d="M0,0L19,0" stroke="#5c4776"/>
            <path fill="#5c4776" d="M19,-4L27,0L19,4L19,-4" stroke-linecap="round" stroke-width="1" stroke="#5c4776"/>
        </g>
    </g>
</svg>
