<svg height="303" xmlns:xlink="http://www.w3.org/1999/xlink" width="566" xmlns="http://www.w3.org/2000/svg" viewBox="0 0 566 303">
    <style type="text/css"><![CDATA[
.st2 {fill:#000000;font-family:Arial;font-size:11pt}
.st1 {fill:#000000;font-family:Arial;font-size:12pt}
.st3 {text-decoration:underline}
]]></style>
    <defs/>
    <g transform="translate(-189.21,-206.55)">
        <g id="shape1" transform="translate(545.54,250.62)">
            <path stroke="#000000" stroke-width="1.33333" fill="#ffffff" d="M166.2,54.5L166.2,0L0,0L0,54.5L166.2,54.5z"/>
            <text class="st1">
                <tspan y="13.8" x="7.1">e=new Node&lt;T>(o);</tspan>
                <tspan y="32.8" x="7.1">++count;</tspan>
                <tspan y="51.8" x="7.1">if (tail == 0)</tspan>
            </text>
        </g>
        <g id="shape2" transform="translate(524.27,320.28)">
            <path stroke="#000000" stroke-width="1.33333" fill="#ffffff" d="M110.7,39.4L110.7,0L0,0L0,39.4L110.7,39.4z"/>
            <text class="st1">
                <tspan y="25.2" x="7.4">head=tail=e;</tspan>
            </text>
        </g>
        <g id="shape3" transform="translate(639.38,319.21)">
            <path stroke="#000000" stroke-width="1.33333" fill="#ffffff" d="M115,39.4L115,0L0,0L0,39.4L115,39.4z"/>
            <text class="st1">
                <tspan y="15.7" x="7.5">tail->next=e;</tspan>
                <tspan y="34.7" x="7.5">tail=e;</tspan>
            </text>
        </g>
        <g id="shape4" transform="translate(581.01,375.54)">
            <path stroke="#000000" stroke-width="1.33333" fill="#ffffff" d="M115,27.5L115,0L0,0L0,27.5L115,27.5z"/>
            <text class="st1">
                <tspan y="19.3" x="7.5">return;</tspan>
            </text>
        </g>
        <g id="shape5" transform="matrix(-0.96,0.3,-0.3,-0.96,628.7,305.1)">
            <path stroke="#000000" stroke-width="1.33333" fill="none" d="M0,0L44.4,0"/>
            <path stroke="#000000" stroke-width="1" fill="#000000" d="M44.4,-3.5L51.3,0L44.4,3.5L44.4,-3.5" stroke-linecap="round"/>
        </g>
        <g id="shape6" transform="matrix(0.98,0.2,-0.2,0.98,628.7,305.1)">
            <path stroke="#000000" stroke-width="1.33333" fill="none" d="M0,0L62.7,0"/>
            <path stroke="#000000" stroke-width="1" fill="#000000" d="M62.7,-3.5L69.6,0L62.7,3.5L62.7,-3.5" stroke-linecap="round"/>
        </g>
        <g id="shape7" transform="matrix(0.97,0.26,-0.26,0.97,579.6,359.6)">
            <path stroke="#000000" stroke-width="1.33333" fill="none" d="M0,0L54.1,0"/>
            <path stroke="#000000" stroke-width="1" fill="#000000" d="M54.1,-3.5L61,0L54.1,3.5L54.1,-3.5" stroke-linecap="round"/>
        </g>
        <g id="shape8" transform="matrix(-0.96,0.28,-0.28,-0.96,696.9,358.6)">
            <path stroke="#000000" stroke-width="1.33333" fill="none" d="M0,0L53.9,0"/>
            <path stroke="#000000" stroke-width="1" fill="#000000" d="M53.9,-3.5L60.8,0L53.9,3.5L53.9,-3.5" stroke-linecap="round"/>
        </g>
        <g id="shape9" transform="translate(250.44,226.17)">
            <path stroke="#000000" stroke-width="1.33333" fill="#fcfcfc" d="M0,15.2C0,6.8,7.1,0,15.9,0C24.7,0,31.8,6.8,31.8,15.2C31.8,23.5,24.7,30.3,15.9,30.3C7.1,30.3,0,23.5,0,15.2z"/>
            <text class="st2">
                <tspan y="19.7" x="8.4">n1</tspan>
            </text>
        </g>
        <g id="shape10" transform="translate(250.44,264.21)">
            <path stroke="#000000" stroke-width="1.33333" fill="#fcfcfc" d="M0,14.7C0,6.6,6.9,0,15.4,0C23.9,0,30.8,6.6,30.8,14.7C30.8,22.8,23.9,29.4,15.4,29.4C6.9,29.4,0,22.8,0,14.7z"/>
            <text class="st2">
                <tspan y="19.2" x="7.4">n2</tspan>
            </text>
        </g>
        <g id="shape11" transform="translate(238.21,358.17)">
            <path stroke="#000000" stroke-width="1.33333" fill="#aea775" d="M0,17C0,7.6,8,0,17.8,0C27.6,0,35.6,7.6,35.6,17C35.6,26.3,27.6,33.9,17.8,33.9C8,33.9,0,26.3,0,17z"/>
            <text class="st1">
                <tspan y="22.5" x="9.3">n3</tspan>
            </text>
        </g>
        <g id="shape12" transform="translate(198.32,241.33)">
            <path stroke="#000000" stroke-width="1.33333" fill="none" d="M0,0L52.1,0"/>
            <path stroke-linejoin="round" stroke="#000000" stroke-width="1.33333" fill="none" d="M42.9,-4.6L52.1,0L42.9,4.6" stroke-linecap="round"/>
            <text class="st1">
                <tspan y="-4" x="8.6">head</tspan>
            </text>
        </g>
        <g id="shape13" transform="translate(198.69,278.89)">
            <path stroke="#000000" stroke-width="1.33333" fill="none" d="M0,0L51.8,0"/>
            <path stroke-linejoin="round" stroke="#000000" stroke-width="1.33333" fill="none" d="M42.5,-4.6L51.8,0L42.5,4.6" stroke-linecap="round"/>
            <text class="st1">
                <tspan y="-4" x="15.9">tail</tspan>
            </text>
        </g>
        <g id="shape14" transform="translate(341.96,242.72)">
            <path stroke="#000000" stroke-width="1.33333" fill="none" d="M0,0L53.2,0"/>
            <path stroke-linejoin="round" stroke="#000000" stroke-width="1.33333" fill="none" d="M43.9,-4.6L53.2,0L43.9,4.6" stroke-linecap="round"/>
            <text class="st1">
                <tspan y="-4" x="9.1">head</tspan>
            </text>
        </g>
        <g id="shape15" transform="matrix(1,0.01,-0.01,1,343.1,279.7)">
            <path stroke="#000000" stroke-width="1.33333" fill="none" d="M0,0L50.8,0"/>
            <path stroke-linejoin="round" stroke="#000000" stroke-width="1.33333" fill="none" d="M41.6,-4.6L50.8,0L41.6,4.6" stroke-linecap="round"/>
            <text class="st1" transform="matrix(1,-0.01,0.01,1,0,0.3)">
                <tspan y="-4" x="15.4">tail</tspan>
            </text>
        </g>
        <g id="shape16" transform="matrix(-1,0,0,-1,331,375.1)">
            <path stroke="#000000" stroke-width="1.33333" fill="none" d="M0,0L57.2,0"/>
            <path stroke-linejoin="round" stroke="#000000" stroke-width="1.33333" fill="none" d="M48,-4.6L57.2,0L48,4.6" stroke-linecap="round"/>
            <text class="st1" transform="matrix(-1,-0,0,-1,57.2,0)">
                <tspan y="15" x="18.6">tail</tspan>
            </text>
        </g>
        <g id="shape17" transform="matrix(0,1,-1,0,256,330.3)">
            <path stroke="#000000" stroke-width="1.33333" fill="none" d="M0,0L27.9,0"/>
            <path stroke-linejoin="round" stroke="#000000" stroke-width="1.33333" fill="none" d="M18.6,-4.6L27.9,0L18.6,4.6" stroke-linecap="round"/>
            <text class="st1" transform="matrix(0,-1,1,0,13.9,13.9)">
                <tspan y="5.5" x="3.4">e   </tspan>
            </text>
        </g>
        <g id="shape18" transform="matrix(-1,0,0,-1,424.7,335.4)">
            <path stroke="#000000" stroke-width="1.33333" fill="none" d="M0,0L38.5,0"/>
            <path stroke-linejoin="round" stroke="#000000" stroke-width="1.33333" fill="none" d="M29.2,-4.6L38.5,0L29.2,4.6" stroke-linecap="round"/>
            <text class="st1" transform="matrix(-1,-0,0,-1,38.5,0)">
                <tspan y="-4" x="-0.3"> head</tspan>
            </text>
        </g>
        <g id="shape19" transform="matrix(1,0,-0,1,386.3,375.1)">
            <path stroke="#000000" stroke-width="1.33333" fill="none" d="M0,0L37.7,0"/>
            <path stroke-linejoin="round" stroke="#000000" stroke-width="1.33333" fill="none" d="M28.4,-4.6L37.7,0L28.4,4.6" stroke-linecap="round"/>
            <text class="st1" transform="matrix(1,-0,0,1,0,0)">
                <tspan y="-4" x="0.8">next  </tspan>
            </text>
        </g>
        <g id="shape20" transform="matrix(0,1,-1,0,441.7,330.3)">
            <path stroke="#000000" stroke-width="1.33333" fill="none" d="M0,0L27.9,0"/>
            <path stroke-linejoin="round" stroke="#000000" stroke-width="1.33333" fill="none" d="M18.6,-4.6L27.9,0L18.6,4.6" stroke-linecap="round"/>
            <text class="st1" transform="matrix(0,-1,1,0,13.9,13.9)">
                <tspan y="5.5" x="1.4">    e</tspan>
            </text>
        </g>
        <path stroke="#000000" id="shape21" stroke-width="1.33333" transform="translate(190.54,221.81)" fill="none" d="M130.9,76.7L130.9,0L0,0L0,76.7L130.9,76.7z"/>
        <path stroke="#000000" id="shape22" stroke-width="1.33333" transform="translate(339.56,221.81)" fill="none" d="M161.8,76.7L161.8,0L0,0L0,76.7L161.8,76.7z"/>
        <path stroke="#000000" id="shape23" stroke-width="1.33333" transform="translate(190.54,314.09)" fill="none" d="M151.2,89.3L151.2,0L0,0L0,89.3L151.2,89.3z"/>
        <path stroke="#000000" id="shape24" stroke-width="1.33333" transform="translate(352.34,314.09)" fill="none" d="M149,89.3L149,0L0,0L0,89.3L149,89.3z"/>
        <path stroke="#000000" id="shape25" stroke-width="1.33333" transform="translate(190.54,424.03)" fill="none" d="M310.8,83.7L310.8,0L0,0L0,83.7L310.8,83.7z"/>
        <g id="shape26" transform="translate(321.47,260.13)">
            <path stroke="#000000" stroke-width="1.33333" fill="none" d="M0,0L11.2,0"/>
            <path stroke="#000000" stroke-width="1" fill="#000000" d="M11.2,-3.5L18.1,0L11.2,3.5L11.2,-3.5" stroke-linecap="round"/>
        </g>
        <g id="shape27" transform="matrix(-0.99,0.1,-0.1,-0.99,420.5,298.5)">
            <path stroke="#000000" stroke-width="1.33333" fill="none" d="M0,0L148.2,0"/>
            <path stroke="#000000" stroke-width="1" fill="#000000" d="M148.2,-3.5L155.1,0L148.2,3.5L148.2,-3.5" stroke-linecap="round"/>
        </g>
        <g id="shape28" transform="matrix(0.38,0.93,-0.93,0.38,420.5,298.5)">
            <path stroke="#000000" stroke-width="1.33333" fill="none" d="M0,0L10,0"/>
            <path stroke="#000000" stroke-width="1" fill="#000000" d="M10,-3.5L16.9,0L10,3.5L10,-3.5" stroke-linecap="round"/>
        </g>
        <g id="shape29" transform="matrix(0.97,0.25,-0.25,0.97,266.1,403.4)">
            <path stroke="#000000" stroke-width="1.33333" fill="none" d="M0,0L75.5,0"/>
            <path stroke="#000000" stroke-width="1" fill="#000000" d="M75.5,-3.5L82.5,0L75.5,3.5L75.5,-3.5" stroke-linecap="round"/>
        </g>
        <g id="shape30" transform="matrix(-0.97,0.25,-0.25,-0.97,426.8,403.4)">
            <path stroke="#000000" stroke-width="1.33333" fill="none" d="M0,0L76.6,0"/>
            <path stroke="#000000" stroke-width="1" fill="#000000" d="M76.6,-3.5L83.5,0L76.6,3.5L76.6,-3.5" stroke-linecap="round"/>
        </g>
        <g id="shape31" transform="matrix(-0,1,-1,-0,628.7,238.4)">
            <path stroke="#000000" stroke-width="1.33333" fill="none" d="M0,0L5.2,0"/>
            <path stroke="#000000" stroke-width="1" fill="#000000" d="M5.2,-3.5L12.2,0L5.2,3.5L5.2,-3.5" stroke-linecap="round"/>
        </g>
        <g id="shape32" transform="translate(560.7,442.28)">
            <text class="st1">
                <tspan y="19.2" x="16.3">Unknown node</tspan>
            </text>
        </g>
        <g id="shape33" transform="translate(528.68,429.15)">
            <path stroke="#000000" stroke-width="1.33333" fill="none" d="M0,0L34.1,0"/>
            <path stroke-linejoin="round" stroke="#000000" stroke-width="1.33333" fill="none" d="M24.8,-4.6L34.1,0L24.8,4.6" stroke-linecap="round"/>
        </g>
        <g id="shape34" transform="translate(567.26,416.98)">
            <text class="st1">
                <tspan y="18.5" x="10.2">Pointer</tspan>
            </text>
        </g>
        <g id="shape35" transform="translate(395.11,227.87)">
            <path stroke="#000000" stroke-width="1.33333" fill="#fcfcfc" d="M0,14.8C0,6.6,7,0,15.6,0C24.2,0,31.2,6.6,31.2,14.8C31.2,23,24.2,29.7,15.6,29.7C7,29.7,0,23,0,14.8z"/>
            <text class="st2">
                <tspan y="19.3" x="8.1">n1</tspan>
            </text>
        </g>
        <g id="shape36" transform="translate(393.93,265.35)">
            <path stroke="#000000" stroke-width="1.33333" fill="#fcfcfc" d="M0,14.9C0,6.7,7,0,15.7,0C24.3,0,31.3,6.7,31.3,14.9C31.3,23.2,24.3,29.9,15.7,29.9C7,29.9,0,23.2,0,14.9z"/>
            <text class="st2">
                <tspan y="19.4" x="8.2">n2</tspan>
            </text>
        </g>
        <g id="shape37" transform="translate(201.19,321.09)">
            <path stroke="#000000" stroke-width="1.33333" fill="#fcfcfc" d="M0,14.3C0,6.4,6.7,0,15,0C23.3,0,30.1,6.4,30.1,14.3C30.1,22.2,23.3,28.7,15,28.7C6.7,28.7,0,22.2,0,14.3z"/>
            <text class="st2">
                <tspan y="18.8" x="7">n1</tspan>
            </text>
        </g>
        <g id="shape38" transform="translate(201.19,360.33)">
            <path stroke="#000000" stroke-width="1.33333" fill="#fcfcfc" d="M0,14.8C0,6.6,7,0,15.5,0C24.1,0,31.1,6.6,31.1,14.8C31.1,23,24.1,29.6,15.5,29.6C7,29.6,0,23,0,14.8z"/>
            <text class="st2">
                <tspan y="19.3" x="8">n2</tspan>
            </text>
        </g>
        <g id="shape39" transform="translate(433.54,261.93)">
            <path stroke="#000000" stroke-width="1.33333" fill="#aea775" d="M0,17C0,7.6,8,0,17.8,0C27.6,0,35.6,7.6,35.6,17C35.6,26.3,27.6,33.9,17.8,33.9C8,33.9,0,26.3,0,17z"/>
            <text class="st1">
                <tspan y="22.5" x="9.3">n3</tspan>
            </text>
        </g>
        <g id="shape40" transform="translate(355.53,320.78)">
            <path stroke="#000000" stroke-width="1.33333" fill="#fcfcfc" d="M0,14.6C0,6.6,6.9,0,15.4,0C23.8,0,30.7,6.6,30.7,14.6C30.7,22.7,23.8,29.3,15.4,29.3C6.9,29.3,0,22.7,0,14.6z"/>
            <text class="st2">
                <tspan y="19.1" x="7.4">n1</tspan>
            </text>
        </g>
        <g id="shape41" transform="translate(355.53,360.49)">
            <path stroke="#000000" stroke-width="1.33333" fill="#fcfcfc" d="M0,14.6C0,6.6,6.9,0,15.4,0C23.8,0,30.7,6.6,30.7,14.6C30.7,22.7,23.8,29.3,15.4,29.3C6.9,29.3,0,22.7,0,14.6z"/>
            <text class="st2">
                <tspan y="19.1" x="7.4">n2</tspan>
            </text>
        </g>
        <g id="shape42" transform="translate(423.92,358.17)">
            <path stroke="#000000" stroke-width="1.33333" fill="#aea775" d="M0,17C0,7.6,8,0,17.8,0C27.6,0,35.6,7.6,35.6,17C35.6,26.3,27.6,33.9,17.8,33.9C8,33.9,0,26.3,0,17z"/>
            <text class="st1">
                <tspan y="22.5" x="9.3">n3</tspan>
            </text>
        </g>
        <g id="shape43" transform="matrix(-1,0,0,-1,497.1,375.1)">
            <path stroke="#000000" stroke-width="1.33333" fill="none" d="M0,0L37.6,0"/>
            <path stroke-linejoin="round" stroke="#000000" stroke-width="1.33333" fill="none" d="M28.4,-4.6L37.6,0L28.4,4.6" stroke-linecap="round"/>
            <text class="st1" transform="matrix(-1,-0,0,-1,37.6,0)">
                <tspan y="-4" x="2.8">   tail</tspan>
            </text>
        </g>
        <g id="shape44" transform="translate(238.21,467.76)">
            <path stroke="#000000" stroke-width="1.33333" fill="#aea775" d="M0,17C0,7.6,8,0,17.8,0C27.6,0,35.6,7.6,35.6,17C35.6,26.3,27.6,33.9,17.8,33.9C8,33.9,0,26.3,0,17z"/>
            <text class="st1">
                <tspan y="22.5" x="9.3">n3</tspan>
            </text>
        </g>
        <g id="shape45" transform="matrix(-1,0,0,-1,331,484.7)">
            <path stroke="#000000" stroke-width="1.33333" fill="none" d="M0,0L57.2,0"/>
            <path stroke-linejoin="round" stroke="#000000" stroke-width="1.33333" fill="none" d="M48,-4.6L57.2,0L48,4.6" stroke-linecap="round"/>
            <text class="st1" transform="matrix(-1,-0,0,-1,57.2,0)">
                <tspan y="15" x="18.6">tail</tspan>
            </text>
        </g>
        <g id="shape46" transform="matrix(0,1,-1,0,256,439.9)">
            <path stroke="#000000" stroke-width="1.33333" fill="none" d="M0,0L27.9,0"/>
            <path stroke-linejoin="round" stroke="#000000" stroke-width="1.33333" fill="none" d="M18.6,-4.6L27.9,0L18.6,4.6" stroke-linecap="round"/>
            <text class="st1" transform="matrix(0,-1,1,0,13.9,13.9)">
                <tspan y="5.5" x="3.4">e   </tspan>
            </text>
        </g>
        <g id="shape47" transform="matrix(-1,0,0,-1,424.7,445)">
            <path stroke="#000000" stroke-width="1.33333" fill="none" d="M0,0L40.4,0"/>
            <path stroke-linejoin="round" stroke="#000000" stroke-width="1.33333" fill="none" d="M31.1,-4.6L40.4,0L31.1,4.6" stroke-linecap="round"/>
            <text class="st1" transform="matrix(-1,-0,0,-1,40.4,0)">
                <tspan y="-4" x="0.7"> head</tspan>
            </text>
        </g>
        <g id="shape48" transform="matrix(1,0,-0,1,384.3,484.7)">
            <path stroke="#000000" stroke-width="1.33333" fill="none" d="M0,0L39.6,0"/>
            <path stroke-linejoin="round" stroke="#000000" stroke-width="1.33333" fill="none" d="M30.3,-4.6L39.6,0L30.3,4.6" stroke-linecap="round"/>
            <text class="st1" transform="matrix(1,-0,0,1,0,0)">
                <tspan y="-4" x="5.8">next</tspan>
            </text>
        </g>
        <g id="shape49" transform="matrix(0,1,-1,0,441.7,439.9)">
            <path stroke="#000000" stroke-width="1.33333" fill="none" d="M0,0L27.9,0"/>
            <path stroke-linejoin="round" stroke="#000000" stroke-width="1.33333" fill="none" d="M18.6,-4.6L27.9,0L18.6,4.6" stroke-linecap="round"/>
            <text class="st1" transform="matrix(0,-1,1,0,13.9,13.9)">
                <tspan y="5.5" x="1.4">    e</tspan>
            </text>
        </g>
        <g id="shape50" transform="translate(201.19,430.32)">
            <path stroke="#000000" stroke-width="1.33333" fill="#fcfcfc" d="M0,14.3C0,6.4,6.7,0,15,0C23.3,0,30.1,6.4,30.1,14.3C30.1,22.2,23.3,28.7,15,28.7C6.7,28.7,0,22.2,0,14.3z"/>
            <text class="st2">
                <tspan y="18.8" x="7">n1</tspan>
            </text>
        </g>
        <g id="shape51" transform="translate(201.19,470.99)">
            <path stroke="#000000" stroke-width="1.33333" fill="#fcfcfc" d="M0,14.9C0,6.7,7,0,15.7,0C24.3,0,31.3,6.7,31.3,14.9C31.3,23.2,24.3,29.9,15.7,29.9C7,29.9,0,23.2,0,14.9z"/>
            <text class="st2">
                <tspan y="19.4" x="8.2">n2</tspan>
            </text>
        </g>
        <g id="shape52" transform="translate(354.26,430.67)">
            <path stroke="#000000" stroke-width="1.33333" fill="#fcfcfc" d="M0,14.3C0,6.4,6.7,0,15,0C23.3,0,30.1,6.4,30.1,14.3C30.1,22.2,23.3,28.7,15,28.7C6.7,28.7,0,22.2,0,14.3z"/>
            <text class="st2">
                <tspan y="18.8" x="7">n1</tspan>
            </text>
        </g>
        <g id="shape53" transform="translate(352.26,469.43)">
            <path stroke="#000000" stroke-width="1.33333" fill="#fcfcfc" d="M0,15.3C0,6.8,7.2,0,16,0C24.9,0,32.1,6.8,32.1,15.3C32.1,23.7,24.9,30.6,16,30.6C7.2,30.6,0,23.7,0,15.3z"/>
            <text class="st2">
                <tspan y="19.8" x="8">n2</tspan>
            </text>
        </g>
        <g id="shape54" transform="translate(423.92,467.76)">
            <path stroke="#000000" stroke-width="1.33333" fill="#aea775" d="M0,17C0,7.6,8,0,17.8,0C27.6,0,35.6,7.6,35.6,17C35.6,26.3,27.6,33.9,17.8,33.9C8,33.9,0,26.3,0,17z"/>
            <text class="st1">
                <tspan y="22.5" x="9.3">n3</tspan>
            </text>
        </g>
        <g id="shape55" transform="matrix(-1,0,0,-1,497.1,484.7)">
            <path stroke="#000000" stroke-width="1.33333" fill="none" d="M0,0L37.6,0"/>
            <path stroke-linejoin="round" stroke="#000000" stroke-width="1.33333" fill="none" d="M28.4,-4.6L37.6,0L28.4,4.6" stroke-linecap="round"/>
            <text class="st1" transform="matrix(-1,-0,0,-1,37.6,0)">
                <tspan y="-4" x="2.8">   tail</tspan>
            </text>
        </g>
        <g id="shape56" transform="translate(580.75,220.54)">
            <path stroke="#000000" stroke-width="1.33333" fill="none" d="M0,9C0,4,21.4,0,47.9,0C74.4,0,95.8,4,95.8,9C95.8,13.9,74.4,17.9,47.9,17.9C21.4,17.9,0,13.9,0,9z"/>
            <text class="st1">
                <tspan y="14.5" x="39.4">b0</tspan>
            </text>
        </g>
        <g id="shape57" transform="translate(508.93,246.57)">
            <text class="st1">
                <tspan y="25.8" x="12">b1</tspan>
            </text>
        </g>
        <g id="shape58" transform="translate(507.77,292.79)">
            <text class="st1">
                <tspan y="24" x="12.5">b2</tspan>
            </text>
        </g>
        <g id="shape59" transform="translate(546.24,373.54)">
            <text class="st1">
                <tspan y="21.3" x="10.5">b4</tspan>
            </text>
        </g>
        <g id="shape60" transform="translate(288.47,211.17)">
            <text class="st1">
                <tspan class="st3" y="25.8" x="12.3">b0</tspan>
            </text>
        </g>
        <g id="shape61" transform="translate(469.13,207.88)">
            <text class="st1">
                <tspan class="st3" y="29.1" x="11.4">b1</tspan>
            </text>
        </g>
        <g id="shape62" transform="translate(314.55,304.7)">
            <text class="st1">
                <tspan class="st3" y="25.7" x="7.5">b2</tspan>
            </text>
        </g>
        <g id="shape63" transform="translate(469.13,310.68)">
            <text class="st1">
                <tspan class="st3" y="18.6" x="11.4">b3</tspan>
            </text>
        </g>
        <g id="shape64" transform="translate(473,418.1)">
            <text class="st1">
                <tspan class="st3" y="25.5" x="7.5">b4</tspan>
            </text>
        </g>
        <g id="shape65" transform="translate(531.34,441.32)">
            <path stroke="#000000" stroke-width="1.33333" fill="#fcfcfc" d="M0,14.2C0,6.4,6.7,0,14.9,0C23.1,0,29.8,6.4,29.8,14.2C29.8,22,23.1,28.4,14.9,28.4C6.7,28.4,0,22,0,14.2z"/>
            <text class="st1">
                <tspan y="19.7" x="11.4">n</tspan>
            </text>
        </g>
        <g id="shape66" transform="translate(529.85,476.5)">
            <path stroke="#000000" stroke-width="1.33333" fill="#aea775" d="M0,15.6C0,7,7.3,0,16.4,0C25.4,0,32.8,7,32.8,15.6C32.8,24.2,25.4,31.2,16.4,31.2C7.3,31.2,0,24.2,0,15.6z"/>
            <text class="st1">
                <tspan y="21.1" x="12.4">n</tspan>
            </text>
        </g>
        <g id="shape67" transform="translate(552.26,481.98)">
            <text class="st1">
                <tspan y="15.6" x="23.3">Unique node</tspan>
            </text>
        </g>
        <g id="shape68" transform="translate(712.39,291.79)">
            <text class="st1">
                <tspan y="24.5" x="12.5">b3</tspan>
            </text>
        </g>
        <g id="shape69" transform="matrix(0,1,-1,0,451.3,234.1)">
            <path stroke="#000000" stroke-width="1.33333" fill="none" d="M0,0L27.9,0"/>
            <path stroke-linejoin="round" stroke="#000000" stroke-width="1.33333" fill="none" d="M18.6,-4.6L27.9,0L18.6,4.6" stroke-linecap="round"/>
            <text class="st1" transform="matrix(0,-1,1,0,13.9,13.9)">
                <tspan y="5.5" x="1.4">    e</tspan>
            </text>
        </g>
        <g id="shape70" transform="matrix(-0.71,0.71,-0.71,-0.71,293.8,445.4)">
            <path stroke="#000000" stroke-width="1.33333" fill="none" d="M0,0L34.6,0"/>
            <path stroke-linejoin="round" stroke="#000000" stroke-width="1.33333" fill="none" d="M25.4,-4.6L34.6,0L25.4,4.6" stroke-linecap="round"/>
            <text class="st1" transform="matrix(-0.71,-0.71,0.71,-0.71,29.6,12.2)">
                <tspan y="5.5" x="-0.2">head</tspan>
            </text>
        </g>
        <g id="shape71" transform="matrix(-0.71,0.71,-0.71,-0.71,290.6,334.2)">
            <path stroke="#000000" stroke-width="1.33333" fill="none" d="M0,0L34.6,0"/>
            <path stroke-linejoin="round" stroke="#000000" stroke-width="1.33333" fill="none" d="M25.4,-4.6L34.6,0L25.4,4.6" stroke-linecap="round"/>
            <text class="st1" transform="matrix(-0.71,-0.71,0.71,-0.71,6.8,2.8)"/>
            <text class="st1" transform="matrix(-0.71,-0.71,0.71,-0.71,29.6,12.2)">
                <tspan y="5.5" x="-0.2">head</tspan>
            </text>
        </g>
    </g>
</svg>
